{"asset":{"version":"2.0","generator":"Blockbench 5.0.7 glTF exporter"},"scenes":[{"nodes":[5,8],"name":"blockbench_export"}],"scene":0,"nodes":[{"translation":[0,0.41855625,0],"name":"Top","mesh":0},{"translation":[0,0.28125,0],"name":"Mid","mesh":1},{"translation":[0,0.14394375,0],"name":"Bottom","mesh":2},{"rotation":[-0.7010573846499778,0.09229595564125725,-0.09229595564125724,0.7010573846499779],"translation":[0,0.28125,-0.234375],"name":"Button Base","mesh":3},{"rotation":[-0.7010573846499778,0.09229595564125725,-0.09229595564125724,0.7010573846499779],"translation":[0,0.28125,-0.265625],"name":"Button Outter","mesh":4},{"rotation":[0.1521233861899167,0,0,0.9883615104677607],"name":"Pokeball","children":[0,1,2,3,4]},{"translation":[0,0.3,0],"name":"Top_outline","mesh":5},{"translation":[0,0.2625,0],"name":"Bottom_outline","mesh":6},{"rotation":[0.1521233861899167,0,0,0.9883615104677607],"name":"Cell Shading","children":[6,7]}],"bufferViews":[{"buffer":0,"byteOffset":0,"byteLength":1680,"target":34962,"byteStride":12},{"buffer":0,"byteOffset":1680,"byteLength":1680,"target":34962,"byteStride":12},{"buffer":0,"byteOffset":3360,"byteLength":1120,"target":34962,"byteStride":8},{"buffer":0,"byteOffset":4480,"byteLength":384,"target":34963},{"buffer":0,"byteOffset":4864,"byteLength":960,"target":34962,"byteStride":12},{"buffer":0,"byteOffset":5824,"byteLength":960,"target":34962,"byteStride":12},{"buffer":0,"byteOffset":6784,"byteLength":640,"target":34962,"byteStride":8},{"buffer":0,"byteOffset":7424,"byteLength":192,"target":34963},{"buffer":0,"byteOffset":7616,"byteLength":1680,"target":34962,"byteStride":12},{"buffer":0,"byteOffset":9296,"byteLength":1680,"target":34962,"byteStride":12},{"buffer":0,"byteOffset":10976,"byteLength":1120,"target":34962,"byteStride":8},{"buffer":0,"byteOffset":12096,"byteLength":384,"target":34963},{"buffer":0,"byteOffset":12480,"byteLength":1440,"target":34962,"byteStride":12},{"buffer":0,"byteOffset":13920,"byteLength":1440,"target":34962,"byteStride":12},{"buffer":0,"byteOffset":15360,"byteLength":960,"target":34962,"byteStride":8},{"buffer":0,"byteOffset":16320,"byteLength":288,"target":34963},{"buffer":0,"byteOffset":16608,"byteLength":1440,"target":34962,"byteStride":12},{"buffer":0,"byteOffset":18048,"byteLength":1440,"target":34962,"byteStride":12},{"buffer":0,"byteOffset":19488,"byteLength":960,"target":34962,"byteStride":8},{"buffer":0,"byteOffset":20448,"byteLength":288,"target":34963},{"buffer":0,"byteOffset":20736,"byteLength":1680,"target":34962,"byteStride":12},{"buffer":0,"byteOffset":22416,"byteLength":1680,"target":34962,"byteStride":12},{"buffer":0,"byteOffset":24096,"byteLength":1120,"target":34962,"byteStride":8},{"buffer":0,"byteOffset":25216,"byteLength":384,"target":34963},{"buffer":0,"byteOffset":25600,"byteLength":1680,"target":34962,"byteStride":12},{"buffer":0,"byteOffset":27280,"byteLength":1680,"target":34962,"byteStride":12},{"buffer":0,"byteOffset":28960,"byteLength":1120,"target":34962,"byteStride":8},{"buffer":0,"byteOffset":30080,"byteLength":384,"target":34963}],"buffers":[{"byteLength":30464,"uri":"data:application/octet-stream;base64,"}],"accessors":[{"bufferView":0,"componentType":5126,"count":140,"max":[0.25790250301361084,0.11894375085830688,0.25],"min":[-0.25790250301361084,-0.10605625063180923,-0.26055437326431274],"type":"VEC3"},{"bufferView":1,"componentType":5126,"count":140,"max":[0.9486693739891052,0.9721320271492004,0.9584250450134277],"min":[-0.9486697912216187,-1,-0.9196029305458069],"type":"VEC3"},{"bufferView":2,"componentType":5126,"count":140,"max":[0.65625,0.9756865501403809],"min":[0,0],"type":"VEC2"},{"bufferView":3,"componentType":5123,"count":192,"max":[139],"min":[0],"type":"SCALAR"},{"bufferView":4,"componentType":5126,"count":80,"max":[0.21875,0.03125,0.21875],"min":[-0.21875,-0.03125,-0.21875],"type":"VEC3"},{"bufferView":5,"componentType":5126,"count":80,"max":[1,1,1],"min":[-1,-1,-1],"type":"VEC3"},{"bufferView":6,"componentType":5126,"count":80,"max":[0.65625,0.59375],"min":[0.003306875005364418,0],"type":"VEC2"},{"bufferView":7,"componentType":5123,"count":96,"max":[79],"min":[0],"type":"SCALAR"},{"bufferView":8,"componentType":5126,"count":140,"max":[0.25790250301361084,0.10605625063180923,0.25],"min":[-0.25790250301361084,-0.11894375085830688,-0.26055437326431274],"type":"VEC3"},{"bufferView":9,"componentType":5126,"count":140,"max":[0.9486693739891052,1,0.9584250450134277],"min":[-0.9486697912216187,-0.9721320271492004,-0.9196029305458069],"type":"VEC3"},{"bufferView":10,"componentType":5126,"count":140,"max":[0.6875,0.8822490572929382],"min":[0,0],"type":"VEC2"},{"bufferView":11,"componentType":5123,"count":192,"max":[139],"min":[0],"type":"SCALAR"},{"bufferView":12,"componentType":5126,"count":120,"max":[0.0625,0.02500000037252903,0.0625],"min":[-0.0625,-0.02500000037252903,-0.0625],"type":"VEC3"},{"bufferView":13,"componentType":5126,"count":120,"max":[1,1,1],"min":[-1,-1,-1],"type":"VEC3"},{"bufferView":14,"componentType":5126,"count":120,"max":[0.8448518514633179,0.875],"min":[0,0],"type":"VEC2"},{"bufferView":15,"componentType":5123,"count":144,"max":[119],"min":[0],"type":"SCALAR"},{"bufferView":16,"componentType":5126,"count":120,"max":[0.04374999925494194,0.0062500000931322575,0.04374999925494194],"min":[-0.04374999925494194,-0.0062500000931322575,-0.04374999925494194],"type":"VEC3"},{"bufferView":17,"componentType":5126,"count":120,"max":[1,1,1],"min":[-1,-1,-1],"type":"VEC3"},{"bufferView":18,"componentType":5126,"count":120,"max":[0.6781250238418579,0.668749988079071],"min":[0,0],"type":"VEC2"},{"bufferView":19,"componentType":5123,"count":144,"max":[119],"min":[0],"type":"SCALAR"},{"bufferView":20,"componentType":5126,"count":140,"max":[0.27196499705314636,0.24375000596046448,0.2640624940395355],"min":[-0.27196499705314636,0.0062500000931322575,-0.27461686730384827],"type":"VEC3"},{"bufferView":21,"componentType":5126,"count":140,"max":[0.9487546682357788,1,0.9196000695228577],"min":[-0.9487534761428833,-0.9721088409423828,-0.9584598541259766],"type":"VEC3"},{"bufferView":22,"componentType":5126,"count":140,"max":[0.5103238821029663,0.46875],"min":[0,0.006803572177886963],"type":"VEC2"},{"bufferView":23,"componentType":5123,"count":192,"max":[139],"min":[0],"type":"SCALAR"},{"bufferView":24,"componentType":5126,"count":140,"max":[0.27196499705314636,-0.0062500000931322575,0.2640624940395355],"min":[-0.27196499705314636,-0.24375000596046448,-0.27461686730384827],"type":"VEC3"},{"bufferView":25,"componentType":5126,"count":140,"max":[0.9487546682357788,0.9721088409423828,0.9196000695228577],"min":[-0.9487534761428833,-1,-0.9584598541259766],"type":"VEC3"},{"bufferView":26,"componentType":5126,"count":140,"max":[0.5103238821029663,0.4539593458175659],"min":[0.002600468695163727,0.0067359209060668945],"type":"VEC2"},{"bufferView":27,"componentType":5123,"count":192,"max":[139],"min":[0],"type":"SCALAR"}],"materials":[{"pbrMetallicRoughness":{"metallicFactor":0,"roughnessFactor":1,"baseColorTexture":{"index":0}},"alphaMode":"MASK","alphaCutoff":0.05,"doubleSided":true},{"pbrMetallicRoughness":{"metallicFactor":0,"roughnessFactor":1,"baseColorTexture":{"index":1}},"alphaMode":"MASK","alphaCutoff":0.05,"doubleSided":true},{"pbrMetallicRoughness":{"metallicFactor":0,"roughnessFactor":1,"baseColorTexture":{"index":2}},"alphaMode":"MASK","alphaCutoff":0.05,"doubleSided":true},{"pbrMetallicRoughness":{"metallicFactor":0,"roughnessFactor":1,"baseColorTexture":{"index":3}},"alphaMode":"MASK","alphaCutoff":0.05,"doubleSided":true},{"pbrMetallicRoughness":{"metallicFactor":0,"roughnessFactor":1,"baseColorTexture":{"index":4}},"alphaMode":"MASK","alphaCutoff":0.05,"doubleSided":true},{"pbrMetallicRoughness":{"metallicFactor":0,"roughnessFactor":1,"baseColorTexture":{"index":5}},"alphaMode":"MASK","alphaCutoff":0.05,"doubleSided":true}],"textures":[{"sampler":0,"source":0,"name":"Top Pokeball.png"},{"sampler":1,"source":1,"name":"Button .png"},{"sampler":2,"source":2,"name":"Botton Pokeball.png"},{"sampler":3,"source":3,"name":"Button Base.png"},{"sampler":4,"source":4,"name":"Button Outter.png"},{"sampler":5,"source":5,"name":"Cel Shading.png"}],"samplers":[{"magFilter":9728,"minFilter":9728,"wrapS":33071,"wrapT":33071},{"magFilter":9728,"minFilter":9728,"wrapS":33071,"wrapT":33071},{"magFilter":9728,"minFilter":9728,"wrapS":33071,"wrapT":33071},{"magFilter":9728,"minFilter":9728,"wrapS":33071,"wrapT":33071},{"magFilter":9728,"minFilter":9728,"wrapS":33071,"wrapT":33071},{"magFilter":9728,"minFilter":9728,"wrapS":33071,"wrapT":33071}],"images":[{"mimeType":"image/png","uri":"data:image/png;base64,"},{"mimeType":"image/png","uri":"data:image/png;base64,"},{"mimeType":"image/png","uri":"data:image/png;base64,"},{"mimeType":"image/png","uri":"data:image/png;base64,"},{"mimeType":"image/png","uri":"data:image/png;base64,"},{"mimeType":"image/png","uri":"data:image/png;base64,"}],"meshes":[{"primitives":[{"mode":4,"attributes":{"POSITION":0,"NORMAL":1,"TEXCOORD_0":2},"indices":3,"material":0}]},{"primitives":[{"mode":4,"attributes":{"POSITION":4,"NORMAL":5,"TEXCOORD_0":6},"indices":7,"material":1}]},{"primitives":[{"mode":4,"attributes":{"POSITION":8,"NORMAL":9,"TEXCOORD_0":10},"indices":11,"material":2}]},{"primitives":[{"mode":4,"attributes":{"POSITION":12,"NORMAL":13,"TEXCOORD_0":14},"indices":15,"material":3}]},{"primitives":[{"mode":4,"attributes":{"POSITION":16,"NORMAL":17,"TEXCOORD_0":18},"indices":19,"material":4}]},{"primitives":[{"mode":4,"attributes":{"POSITION":20,"NORMAL":21,"TEXCOORD_0":22},"indices":23,"material":5}]},{"primitives":[{"mode":4,"attributes":{"POSITION":24,"NORMAL":25,"TEXCOORD_0":26},"indices":27,"material":5}]}]}